<svg width="408" height="408" viewBox="0 0 408 408" fill="none" xmlns="http://www.w3.org/2000/svg">
<g clip-path="url(#clip0_2288_1263)" filter="url(#filter0_d_2288_1263)">
<rect width="400" height="400" transform="translate(4)" fill="black"/>
<path d="M444 -40H-36V440H444V-40Z" fill="white"/>
<path d="M404 0H4V400H404V0Z" fill="white"/>
<path d="M189.827 209.85C196.686 212.825 203.792 214.683 211.144 215.424C218.491 216.175 224.103 216.259 227.976 215.674L233.866 214.568L234.468 227.57C208.811 219.052 214.345 257.133 235.474 246.11L236.297 260.937C235.443 261.146 234.285 261.402 232.818 261.71C231.361 262.013 228.133 262.357 223.134 262.733C218.13 263.109 212.973 263.088 207.665 262.67C202.351 262.253 195.675 261.047 187.626 259.058C179.577 257.065 171.57 254.34 163.605 250.874C145.285 242.91 129.884 230.879 117.407 214.777C104.924 198.669 97.1058 180.589 93.9512 160.515C90.807 140.446 93.228 121.286 101.225 103.039C107.288 89.2332 116.049 77.2703 127.51 67.1497C138.965 57.0188 151.573 49.5602 165.323 44.7687C179.084 39.9825 193.684 37.7329 209.111 38.0252C224.549 38.3071 239.117 41.4231 252.815 47.3785C265.543 52.9215 276.626 59.5398 286.059 67.2333C295.491 74.9163 301.78 81.237 304.924 86.1903L309.619 93.6437L273.818 123.415C273.116 121.97 271.942 120.091 270.296 117.778C268.661 115.471 264.983 111.745 259.271 106.609C253.569 101.462 247.286 97.3965 240.427 94.4161C229.595 89.7134 219.115 87.2446 208.985 87.0045C198.851 86.754 190.026 88.3929 182.511 91.9108C174.992 95.4339 168.473 99.9227 162.955 105.377C157.432 110.821 153.177 116.954 150.19 123.77C143.66 138.677 143.424 154.492 149.477 171.205C155.524 187.907 168.976 200.789 189.827 209.85Z" fill="white"/>
<path d="M215.833 179.912C209.042 176.954 202 175.11 194.708 174.371C187.406 173.636 181.833 173.553 178 174.121L172.167 175.246L170.75 159.194C197.4 170.519 193.4 129.037 170.75 142.019L169.75 129.037C170.583 128.845 171.729 128.595 173.188 128.287C174.646 127.985 177.854 127.641 182.812 127.266C187.771 126.891 192.891 126.912 198.167 127.329C203.432 127.746 210.052 128.949 218.021 130.933C225.995 132.923 233.927 135.636 241.812 139.079C259.995 147.027 275.281 159.011 287.667 175.037C300.042 191.069 307.792 209.069 310.917 229.058C314.042 249.058 311.641 268.141 303.708 286.308C297.708 300.058 289.031 311.975 277.667 322.058C266.307 332.141 253.802 339.563 240.146 344.329C226.479 349.089 212 351.334 196.708 351.058C181.406 350.777 166.953 347.667 153.354 341.725C140.719 336.209 129.724 329.621 120.375 321.954C111.016 314.298 104.781 308.006 101.667 303.079L97 295.662L132.521 266.037C133.203 267.464 134.365 269.334 136 271.641C137.625 273.959 141.281 277.667 146.958 282.766C152.625 287.876 158.854 291.912 165.646 294.871C176.396 299.563 186.792 302.037 196.833 302.287C206.875 302.537 215.635 300.897 223.104 297.371C230.562 293.855 237.031 289.391 242.5 283.975C247.958 278.569 252.177 272.475 255.146 265.683C261.635 250.819 261.885 235.069 255.896 218.433C249.896 201.792 236.542 188.954 215.833 179.912Z" fill="white"/>
<path d="M109.393 285.579C109.876 285.628 120.821 275.751 121.459 275.761C122.08 269.72 117.683 264.315 111.641 263.694C105.6 263.073 100.195 267.471 99.5746 273.512C98.9533 279.558 104.238 285.049 109.393 285.579Z" fill="white"/>
<path d="M299.24 102.15C298.757 102.099 287.788 111.951 287.15 111.94C286.515 117.979 290.9 123.394 296.94 124.029C302.98 124.664 308.395 120.279 309.029 114.239C309.665 108.195 304.393 102.691 299.24 102.15Z" fill="white"/>
</g>
<defs>
<filter id="filter0_d_2288_1263" x="0" y="0" width="408" height="408" filterUnits="userSpaceOnUse" color-interpolation-filters="sRGB">
<feFlood flood-opacity="0" result="BackgroundImageFix"/>
<feColorMatrix in="SourceAlpha" type="matrix" values="0 0 0 0 0 0 0 0 0 0 0 0 0 0 0 0 0 0 127 0" result="hardAlpha"/>
<feOffset dy="4"/>
<feGaussianBlur stdDeviation="2"/>
<feComposite in2="hardAlpha" operator="out"/>
<feColorMatrix type="matrix" values="0 0 0 0 0 0 0 0 0 0 0 0 0 0 0 0 0 0 0.25 0"/>
<feBlend mode="normal" in2="BackgroundImageFix" result="effect1_dropShadow_2288_1263"/>
<feBlend mode="normal" in="SourceGraphic" in2="effect1_dropShadow_2288_1263" result="shape"/>
</filter>
<clipPath id="clip0_2288_1263">
<rect width="400" height="400" fill="white" transform="translate(4)"/>
</clipPath>
</defs>
</svg>
